PathFileType	4	(X/Y/Z)	23_coords_data.trc
DataRate	CameraRate	NumFrames	NumMarkers	Units	OrigDataRate	OrigDataStartFrame	OrigNumFrames
30.0	30.0	8	21	m	30.0	61	71
Frame#	Time	THUMB_TIP	THUMB_IP	THUMB_MCP	THUMB_CMC	INDEX_TIP	INDEX_DIP	INDEX_PIP	INDEX_MCP	MIDDLE_TIP	MIDDLE_DIP	MIDDLE_PIP	MIDDLE_MCP	RING_TIP	RING_DIP	RING_PIP	RING_MCP	PINKY_TIP	PINKY_DIP	PINKY_PIP	PINKY_MCP	WRIST
X1	Y1	Z1	X2	Y2	Z2	X3	Y3	Z3	X4	Y4	Z4	X5	Y5	Z5	X6	Y6	Z6	X7	Y7	Z7	X8	Y8	Z8	X9	Y9	Z9	X10	Y10	Z10	X11	Y11	Z11	X12	Y12	Z12	X13	Y13	Z13	X14	Y14	Z14	X15	Y15	Z15	X16	Y16	Z16	X17	Y17	Z17	X18	Y18	Z18	X19	Y19	Z19	X20	Y20	Z20	X21	Y21	Z21
60	2.0	-0.009280220031738281	0.022814699172973633	0.8858259887695312	-0.02499959945678711	0.02803809928894043	0.9098350219726562	-0.042835201263427734	0.031074899673461914	0.9376500244140625	-0.059675300598144534	0.047023399353027344	0.9635250244140625	0.016869800567626953	0.06462169647216796	0.8556199951171874	-0.005033860206604004	0.06076350021362305	0.8638109741210938	-0.02752669906616211	0.05734690093994141	0.872801025390625	-0.05807440185546875	0.051841800689697265	0.9030139770507812	0.01641830062866211	0.09410759735107421	0.8589039916992187	-0.006620029926300049	0.09004820251464844	0.8637219848632812	-0.03446910095214844	0.08557340240478516	0.8726300048828125	-0.06366600036621094	0.07524870300292968	0.9055910034179687	0.01148169994354248	0.11158499908447266	0.8688709716796875	-0.010886699676513671	0.10851999664306641	0.8760689697265625	-0.03674919891357422	0.10420800018310547	0.8862999877929687	-0.06294960021972656	0.09276909637451172	0.9152559814453125	-0.01070170021057129	0.13376800537109376	0.8833809814453125	-0.025414899826049806	0.1265719985961914	0.8967960205078125	-0.03884759902954102	0.11914499664306641	0.90864697265625	-0.05711270141601563	0.10576699829101563	0.9290809936523438	-0.09193669891357421	0.06151089859008789	0.9867440185546875
61	2.033333333333333	-0.009068819999694824	0.02299049949645996	0.885843994140625	-0.024945499420166016	0.028127099990844725	0.9098889770507812	-0.04282630157470703	0.031062000274658202	0.9374530029296875	-0.060093700408935545	0.04710660171508789	0.9639550170898438	0.01692530059814453	0.06473750305175781	0.855719970703125	-0.005043799877166748	0.06085189819335937	0.8639030151367187	-0.0275531005859375	0.05746139907836914	0.872739013671875	-0.058154098510742186	0.05192300033569336	0.9030640258789062	0.016366100311279295	0.09421099853515626	0.8589669799804688	-0.0065747199058532714	0.09017800140380859	0.8637780151367187	-0.03456019973754883	0.08569950103759766	0.8725919799804688	-0.06377370071411133	0.07527980041503907	0.905593017578125	0.011383000373840333	0.11173500061035156	0.8689660034179687	-0.011065699577331544	0.10868000030517579	0.8760809936523437	-0.03705699920654297	0.10433899688720703	0.8862449951171875	-0.06312149810791015	0.09285649871826172	0.9151649780273438	-0.010775899887084961	0.13389799499511718	0.88339599609375	-0.02544470024108887	0.12675499725341796	0.8967869873046875	-0.03891360092163086	0.11921399688720703	0.9086060180664063	-0.057369701385498045	0.10588700103759766	0.9290700073242187	-0.0922574005126953	0.061496898651123046	0.9868179931640625
62	2.066666666666667	-0.00903402042388916	0.02350580024719238	0.8857620239257813	-0.02485379981994629	0.028526100158691406	0.9097659912109375	-0.04273469924926758	0.031484100341796876	0.9374290161132812	-0.05987720108032227	0.04726800155639648	0.9635369873046875	0.01688909912109375	0.0651510009765625	0.8556240234375	-0.005108910083770752	0.06121490097045899	0.8637969970703125	-0.027587900161743163	0.05780680084228516	0.8726589965820313	-0.05820449829101562	0.05220389938354492	0.9028499755859375	0.016329700469970704	0.09458280181884765	0.8590020141601562	-0.006633880138397216	0.09051999664306641	0.8637680053710938	-0.03456100082397461	0.08601129913330079	0.8725819702148437	-0.06381330108642579	0.07553949737548828	0.9053800048828125	0.011367400169372559	0.11196900177001953	0.8690059814453125	-0.010978699684143067	0.10890599822998047	0.8760869750976562	-0.03709389877319336	0.10453700256347656	0.8861580200195313	-0.06314569854736328	0.09306909942626954	0.9150700073242187	-0.010890800476074219	0.13414599609375	0.883385009765625	-0.025510799407958983	0.127	0.8968170166015625	-0.0390802001953125	0.11951200103759765	0.9086389770507812	-0.05728269958496094	0.1061050033569336	0.9290440063476563	-0.09192690277099609	0.06181290054321289	0.9866339721679688
63	2.1	-0.008924229621887207	0.023892200469970704	0.8857559814453125	-0.02473500061035156	0.028804500579833983	0.9096339721679687	-0.042657299041748045	0.031523399353027344	0.9372000122070312	-0.06020389938354492	0.04745399856567383	0.9636300048828125	0.016940500259399412	0.06548030090332031	0.8556740112304687	-0.005023719787597657	0.06152719879150391	0.863718017578125	-0.027499599456787108	0.05803870010375976	0.8725789794921875	-0.05823320007324219	0.05234280014038086	0.9028289794921875	0.016488899230957033	0.09482890319824219	0.8590670166015625	-0.006533199787139892	0.09076499938964844	0.8637739868164063	-0.03451190185546875	0.0862135009765625	0.8725560302734375	-0.06381940078735351	0.0756710968017578	0.9052689819335937	0.011538100242614747	0.11226799774169922	0.8690590209960938	-0.010887299537658691	0.1092050018310547	0.8761500244140625	-0.036919898986816406	0.10481999969482422	0.8862579956054687	-0.06313660049438477	0.09323320007324219	0.915072021484375	-0.010824199676513671	0.1343769989013672	0.8834530029296875	-0.02530400085449219	0.1271709976196289	0.8969760131835938	-0.03902099990844726	0.11968499755859376	0.9086719970703125	-0.05738109970092774	0.1062760009765625	0.9289609985351562	-0.09220549774169921	0.06187310028076172	0.9865070190429688
64	2.1333333333333333	-0.00880364990234375	0.024044200897216796	0.8856530151367188	-0.024634700775146484	0.02890749931335449	0.9096309814453125	-0.042631000518798826	0.03151510047912598	0.9370029907226562	-0.059899200439453126	0.04750680160522461	0.963510986328125	0.01692009925842285	0.06553800201416016	0.85552099609375	-0.004958630084991455	0.061588401794433596	0.8635679931640625	-0.027412599563598632	0.05813209915161133	0.8725159912109375	-0.05823160171508789	0.05242520141601562	0.9027360229492187	0.01661319923400879	0.09489469909667969	0.8591920166015625	-0.006472519874572754	0.09075469970703125	0.8638480224609375	-0.03442480087280273	0.08628309631347657	0.872541015625	-0.06380500030517579	0.07575920104980469	0.905291015625	0.011507100105285644	0.11235299682617188	0.869197021484375	-0.0108302001953125	0.10927200317382812	0.8761840209960937	-0.03694490051269531	0.10488200378417968	0.8861439819335938	-0.06296839904785156	0.09331549835205079	0.9149299926757812	-0.010611499786376953	0.13433099365234374	0.8834600219726563	-0.025205999374389648	0.1271259994506836	0.8969119873046875	-0.038871700286865235	0.11973999786376953	0.908468994140625	-0.05726190185546875	0.10632499694824218	0.9289199829101562	-0.09220290374755859	0.06200640106201172	0.9862080078125
65	2.1666666666666665	-0.008517040252685546	0.024152599334716796	0.8855900268554687	-0.02446969985961914	0.029006099700927733	0.909458984375	-0.04257099914550781	0.03163479995727539	0.9368389892578125	-0.05965380096435547	0.047596000671386716	0.9634639892578125	0.017075799942016603	0.06564459991455078	0.8554340209960938	-0.004818449974060059	0.061657901763916015	0.8634420166015625	-0.027374900817871094	0.05812409973144531	0.8723109741210937	-0.05811569976806641	0.05240700149536133	0.9025579833984375	0.016829500198364256	0.09492559814453125	0.859322998046875	-0.006232679843902588	0.09082180023193359	0.8638569946289063	-0.03422660064697266	0.08633460235595704	0.8724829711914063	-0.06379890060424805	0.07582340240478516	0.905281982421875	0.01181410026550293	0.11241799926757813	0.8692319946289062	-0.010702799797058106	0.10938700103759766	0.8761300048828125	-0.03672539901733399	0.10501399993896485	0.8861209716796875	-0.0630536003112793	0.09331800079345703	0.9148679809570313	-0.010463299751281739	0.13441600036621093	0.8835070190429688	-0.025056200027465822	0.12726100158691406	0.8969669799804687	-0.03868050003051758	0.11975299835205078	0.9085659790039062	-0.05730770111083985	0.10629499816894532	0.9287230224609375	-0.09213359832763672	0.061898101806640626	0.9865709838867187
66	2.2	-0.008407299995422363	0.02419729995727539	0.885406005859375	-0.024447900772094727	0.029003000259399413	0.90943701171875	-0.042444801330566405	0.03166909980773926	0.9370250244140625	-0.05943629837036133	0.04753120040893555	0.96331201171875	0.017242000579833983	0.06560990142822265	0.8553820190429687	-0.00468552017211914	0.061633899688720704	0.8633579711914062	-0.0271875	0.05814350128173828	0.8721530151367187	-0.05803340148925781	0.05236819839477539	0.9023309936523437	0.01698030090332031	0.09486399841308593	0.8593779907226563	-0.005951099872589112	0.0907926025390625	0.8637949829101562	-0.034009700775146486	0.08631199645996093	0.8723419799804687	-0.0636348991394043	0.07578269958496094	0.9050029907226562	0.011809300422668458	0.11238800048828125	0.8691589965820312	-0.010575400352478028	0.10933899688720704	0.876051025390625	-0.036653900146484376	0.10497100067138672	0.885947021484375	-0.06304240036010743	0.0932344970703125	0.91456201171875	-0.010384499549865723	0.13441799926757814	0.8833820190429688	-0.025108400344848632	0.12722000122070312	0.8966810302734375	-0.03861479949951172	0.11972200012207031	0.9083380126953124	-0.057132099151611326	0.106322998046875	0.9285029907226563	-0.09210549926757812	0.06167919921875	0.9861729736328125
67	2.2333333333333334	-0.008377840042114258	0.02389459991455078	0.8852429809570312	-0.024371999740600586	0.028757999420166016	0.90927099609375	-0.042390701293945315	0.03148550033569336	0.936823974609375	-0.059712501525878904	0.047276798248291015	0.9630800170898437	0.01735810089111328	0.06529389953613281	0.855218994140625	-0.004609670162200928	0.06130989837646485	0.8633070068359375	-0.027116899490356446	0.057848499298095706	0.872073974609375	-0.05798559951782226	0.052124698638916014	0.902239990234375	0.01733919906616211	0.09448159790039062	0.8596719970703125	-0.005640180110931397	0.09046549987792969	0.8640269775390625	-0.03381769943237305	0.08602359771728516	0.8722940063476563	-0.06355950164794921	0.07546939849853515	0.9047429809570312	0.012193900108337402	0.1120530014038086	0.8692369995117187	-0.010308199882507325	0.10904599761962891	0.8760079956054687	-0.036533599853515626	0.10466999816894532	0.885780029296875	-0.06296659851074218	0.0930062026977539	0.9144539794921875	-0.010070500373840332	0.13409100341796876	0.883281982421875	-0.02479170036315918	0.12695500183105468	0.8965289916992187	-0.03868320083618164	0.11956900024414062	0.90806201171875	-0.057037498474121096	0.10605999755859374	0.9283109741210938	-0.09209929656982421	0.06161600112915039	0.9859990234375
